<svg width="16" height="20" viewBox="0 0 16 20" fill="none" xmlns="http://www.w3.org/2000/svg">
<path d="M10.6829 2.51246C10.6829 3.90068 9.48121 5.02617 7.999 5.02617C6.51678 5.02617 5.31641 3.90068 5.31641 2.51246C5.31641 1.12425 6.51678 0 7.999 0C9.48121 0 10.6829 1.12425 10.6829 2.51246Z" fill="#173A4B"/>
<path d="M1.52368 3.42809C0.894894 3.44054 0.335255 3.80658 0.106602 4.35438C-0.122045 4.90345 0.024182 5.5272 0.477471 5.93555C1.88523 7.19551 3.63329 8.07201 5.53276 8.46918V12.2129L3.07216 18.0049C2.91928 18.3634 2.9246 18.7656 3.08811 19.1204C3.25162 19.4752 3.55869 19.7541 3.94154 19.8973C4.32571 20.0405 4.75375 20.0343 5.13262 19.8811C5.51149 19.7292 5.81059 19.4404 5.96212 19.0818L8 14.2885L10.0379 19.0818C10.3649 19.8201 11.2595 20.1812 12.0585 19.8973C12.4413 19.7541 12.7484 19.4752 12.9119 19.1204C13.0754 18.7656 13.0807 18.3647 12.9278 18.0049L10.4672 12.213V8.46918V8.47043C12.3668 8.07202 14.115 7.19552 15.5225 5.93556C15.9758 5.52721 16.122 4.90343 15.8934 4.35439C15.6648 3.80656 15.1051 3.44053 14.4763 3.4281C14.0642 3.42437 13.6681 3.57003 13.3677 3.83521C11.9147 5.11634 9.99512 5.82974 7.99996 5.82974C6.00479 5.82974 4.08504 5.11634 2.63328 3.83521C2.33551 3.56629 1.93537 3.41937 1.52329 3.4281L1.52368 3.42809Z" fill="#173A4B"/>
</svg>
