<svg width="16" height="16" viewBox="0 0 16 16" fill="none" xmlns="http://www.w3.org/2000/svg">
<g clip-path="url(#clip0_12824_69616)">
<path d="M3.49817 0.000976562L5.1209 2.31621L7.92076 2.31515L6.25148 4.54664L7.15595 7.21912L4.5024 6.28306L2.26118 7.93468L2.28999 5.12545L0 3.47383L2.6724 2.67346L3.49817 0.000976562Z" fill="#B18132"/>
<path d="M4.16766 4.18813L2.28999 5.12525L0 3.47363L4.16766 4.18813Z" fill="#B18132"/>
<path d="M4.1682 4.18848L4.50294 6.28321L2.26172 7.93483L4.1682 4.18848Z" fill="#B18132"/>
<path d="M6.2518 4.54679L7.15627 7.21927L4.16797 4.18848L6.2518 4.54679Z" fill="#B18132"/>
<path d="M5.12121 2.31649L7.92108 2.31543L4.16797 4.18861L5.12121 2.31649Z" fill="#B18132"/>
<path d="M3.49765 0.000976562L4.16713 4.18833L2.67188 2.67346L3.49765 0.000976562Z" fill="#B18132"/>
<path d="M12.5007 0L13.3265 2.67248L16 3.47285L13.71 5.12447L13.7399 7.9337L11.4987 6.28209L8.84404 7.2192L9.74851 4.54672L8.07812 2.31523H10.8791L12.5007 0Z" fill="#B18132"/>
<path d="M11.8323 4.18861L9.74851 4.54692L8.07812 2.31543L11.8323 4.18861Z" fill="#B18132"/>
<path d="M11.832 4.18848L11.4984 6.28215L8.84375 7.21927L11.832 4.18848Z" fill="#B18132"/>
<path d="M13.7097 5.12454L13.7396 7.93377L11.832 4.18848L13.7097 5.12454Z" fill="#B18132"/>
<path d="M13.3262 2.67285L15.9997 3.47322L11.832 4.18878L13.3262 2.67285Z" fill="#B18132"/>
<path d="M12.5005 0L11.8321 4.18841L10.8789 2.31523L12.5005 0Z" fill="#B18132"/>
<path d="M12.5018 16.0001L10.8791 13.6849H8.07812L9.74851 11.4545L8.84294 8.78197L11.4976 9.71802L13.7388 8.06641L13.7089 10.8756L16 12.5273L13.3265 13.3266L12.5018 16.0001Z" fill="#B18132"/>
<path d="M11.832 11.812L13.7086 10.876L15.9997 12.5276L11.832 11.812Z" fill="#B18132"/>
<path d="M11.8308 11.8117L11.4961 9.71802L13.7373 8.06641L11.8308 11.8117Z" fill="#B18132"/>
<path d="M9.74933 11.4537L8.84375 8.78125L11.8332 11.811L9.74933 11.4537Z" fill="#B18132"/>
<path d="M10.8791 13.6847H8.07812L11.8323 11.8115L10.8791 13.6847Z" fill="#B18132"/>
<path d="M12.5015 15.9999L11.832 11.8115L13.3262 13.3264L12.5015 15.9999Z" fill="#B18132"/>
<path d="M3.49817 16.0001L2.6724 13.3276L0 12.5283L2.28999 10.8756L2.26007 8.06641L4.50129 9.71802L7.15595 8.78197L6.25038 11.4545L7.92076 13.6849H5.11979L3.49817 16.0001Z" fill="#B18132"/>
<path d="M4.16797 11.8124L6.2518 11.4541L7.92218 13.6845L4.16797 11.8124Z" fill="#B18132"/>
<path d="M4.16797 11.812L4.50271 9.71731L7.15738 8.78125L4.16797 11.812Z" fill="#B18132"/>
<path d="M2.29165 10.8756L2.26172 8.06641L4.1682 11.8128L2.29165 10.8756Z" fill="#B18132"/>
<path d="M2.6724 13.3274L0 12.5281L4.16655 11.8125L2.6724 13.3274Z" fill="#B18132"/>
<path d="M3.5 15.9999L4.16838 11.8125L5.12162 13.6846L3.5 15.9999Z" fill="#B18132"/>
</g>
<defs>
<clipPath id="clip0_12824_69616">
<rect width="16" height="16" fill="white"/>
</clipPath>
</defs>
</svg>
