<svg width="134" height="39" viewBox="0 0 134 39" fill="none" xmlns="http://www.w3.org/2000/svg">
<g clip-path="url(#clip0_12824_69573)">
<path d="M3.88857 16.6463H14.1923V7.30762H17.7957V31.1935H14.1923V20.0355H3.88857V31.1884H0.285156V7.30762H3.88857V16.6463Z" fill="#B18132"/>
<path d="M66.2007 21.0107L73.5965 31.1884H69.1867L62.3654 21.4189H61.7153V31.196H58.1094V7.30762H62.3327C65.4892 7.30762 67.7689 7.89559 69.1716 9.07153C70.7188 10.3919 71.4924 12.1348 71.4924 14.3003C71.5292 15.8798 71.0151 17.4228 70.0384 18.6647C69.0798 19.8792 67.7187 20.7113 66.2007 21.0107ZM61.7153 18.2716H62.8593C66.2729 18.2716 67.9797 16.9671 67.9797 14.3582C67.9797 11.9139 66.3191 10.6918 62.9979 10.6918H61.7153V18.2716Z" fill="#B18132"/>
<path d="M80.6073 7.30762V27.8068H87.6302V31.1935H77.0039V7.30762H80.6073Z" fill="#B18132"/>
<path d="M104.271 10.6918H94.6958V16.4295H103.992V19.8188H94.6958V27.8017H104.271V31.1884H91.0898V7.30762H104.271V10.6918Z" fill="#B18132"/>
<path d="M107.309 31.1878L112.348 5.50781L120.545 24.0717L129.02 5.50781L133.556 31.1878H129.849L127.543 16.7716L120.475 32.2865L113.606 16.754L111.038 31.1878H107.309Z" fill="#B18132"/>
<path d="M27.7535 0.229492L31.4426 5.73289L37.8078 5.73037L34.0128 11.0347L36.0691 17.3873L30.0365 15.1622L24.9413 19.0882L25.0068 12.4105L19.8008 8.48459L25.8762 6.58209L27.7535 0.229492Z" fill="#B18132"/>
<path d="M29.2755 10.1828L25.0068 12.4103L19.8008 8.48438L29.2755 10.1828Z" fill="#B18132"/>
<path d="M29.2756 10.1826L30.0366 15.1619L24.9414 19.0878L29.2756 10.1826Z" fill="#B18132"/>
<path d="M34.0147 11.0343L36.0709 17.3869L29.2773 10.1826L34.0147 11.0343Z" fill="#B18132"/>
<path d="M31.4444 5.73201L37.8096 5.72949L29.2773 10.1821L31.4444 5.73201Z" fill="#B18132"/>
<path d="M27.7562 0.229492L29.2782 10.183L25.8789 6.58209L27.7562 0.229492Z" fill="#B18132"/>
<path d="M48.2223 0.226562L50.0996 6.57916L56.1775 8.48166L50.9714 12.4076L51.0395 19.0853L45.9443 15.1593L39.9092 17.3869L41.9654 11.0343L38.168 5.72996H44.5357L48.2223 0.226562Z" fill="#B18132"/>
<path d="M46.7028 10.1821L41.9654 11.0338L38.168 5.72949L46.7028 10.1821Z" fill="#B18132"/>
<path d="M46.6998 10.1826L45.9413 15.1594L39.9062 17.3869L46.6998 10.1826Z" fill="#B18132"/>
<path d="M50.9679 12.4077L51.0359 19.0853L46.6992 10.1826L50.9679 12.4077Z" fill="#B18132"/>
<path d="M50.096 6.5791L56.1739 8.4816L46.6992 10.1825L50.096 6.5791Z" fill="#B18132"/>
<path d="M48.2217 0.226562L46.7022 10.1826L44.5352 5.72996L48.2217 0.226562Z" fill="#B18132"/>
<path d="M48.2248 38.2591L44.5357 32.7557H38.168L41.9654 27.4539L39.9067 21.1013L45.9418 23.3263L51.0369 19.4004L50.9689 26.078L56.1775 30.004L50.0996 31.904L48.2248 38.2591Z" fill="#B18132"/>
<path d="M46.6992 28.3032L50.9654 26.0781L56.1739 30.0041L46.6992 28.3032Z" fill="#B18132"/>
<path d="M46.7024 28.3031L45.9414 23.3263L51.0366 19.4004L46.7024 28.3031Z" fill="#B18132"/>
<path d="M41.965 27.4542L39.9062 21.1016L46.7023 28.3034L41.965 27.4542Z" fill="#B18132"/>
<path d="M44.5357 32.7553H38.168L46.7028 28.3027L44.5357 32.7553Z" fill="#B18132"/>
<path d="M48.2212 38.2587L46.6992 28.3027L50.096 31.9036L48.2212 38.2587Z" fill="#B18132"/>
<path d="M27.7535 38.2591L25.8762 31.9065L19.8008 30.0065L25.0068 26.078L24.9388 19.4004L30.034 23.3263L36.0691 21.1013L34.0103 27.4539L37.8078 32.7557H31.4401L27.7535 38.2591Z" fill="#B18132"/>
<path d="M29.2734 28.3058L34.0108 27.4541L37.8082 32.7559L29.2734 28.3058Z" fill="#B18132"/>
<path d="M29.2734 28.3059L30.0344 23.3266L36.0695 21.1016L29.2734 28.3059Z" fill="#B18132"/>
<path d="M25.0094 26.078L24.9414 19.4004L29.2756 28.3056L25.0094 26.078Z" fill="#B18132"/>
<path d="M25.8762 31.9066L19.8008 30.0066L29.273 28.3057L25.8762 31.9066Z" fill="#B18132"/>
<path d="M27.7539 38.2592L29.2734 28.3057L31.4405 32.7558L27.7539 38.2592Z" fill="#B18132"/>
</g>
<defs>
<clipPath id="clip0_12824_69573">
<rect width="133.55" height="38.2592" fill="white"/>
</clipPath>
</defs>
</svg>
