<svg width="44" height="44" viewBox="0 0 44 44" fill="none" xmlns="http://www.w3.org/2000/svg">
<path d="M0 5C0 2.23858 2.23858 0 5 0H39C41.7614 0 44 2.23858 44 5V39C44 41.7614 41.7614 44 39 44H5C2.23858 44 0 41.7614 0 39V5Z" fill="#B18132"/>
<path d="M26.168 13.667H17.8346C15.5334 13.667 13.668 15.5325 13.668 17.8337V26.167C13.668 28.4682 15.5334 30.3337 17.8346 30.3337H26.168C28.4692 30.3337 30.3346 28.4682 30.3346 26.167V17.8337C30.3346 15.5325 28.4692 13.667 26.168 13.667Z" stroke="white" stroke-width="1.66667" stroke-linecap="round" stroke-linejoin="round"/>
<path d="M25.3337 21.4753C25.4366 22.1688 25.3181 22.8771 24.9952 23.4994C24.6723 24.1218 24.1614 24.6264 23.5351 24.9416C22.9088 25.2569 22.1991 25.3666 21.5069 25.2552C20.8147 25.1438 20.1752 24.817 19.6794 24.3212C19.1837 23.8255 18.8569 23.186 18.7455 22.4938C18.6341 21.8015 18.7438 21.0918 19.059 20.4656C19.3742 19.8393 19.8789 19.3284 20.5012 19.0055C21.1236 18.6825 21.8319 18.5641 22.5254 18.6669C23.2328 18.7718 23.8878 19.1015 24.3935 19.6072C24.8992 20.1129 25.2288 20.7678 25.3337 21.4753Z" stroke="white" stroke-width="1.66667" stroke-linecap="round" stroke-linejoin="round"/>
<path d="M26.582 17.417H26.5904" stroke="white" stroke-width="1.66667" stroke-linecap="round" stroke-linejoin="round"/>
</svg>
