<svg width="44" height="44" viewBox="0 0 44 44" fill="none" xmlns="http://www.w3.org/2000/svg">
<path d="M0 5C0 2.23858 2.23858 0 5 0H39C41.7614 0 44 2.23858 44 5V39C44 41.7614 41.7614 44 39 44H5C2.23858 44 0 41.7614 0 39V5Z" fill="#B18132"/>
<path d="M30.3346 15.3337C30.3346 15.3337 29.7513 17.0837 28.668 18.167C30.0013 26.5003 20.8346 32.5837 13.668 27.8337C15.5013 27.917 17.3346 27.3337 18.668 26.167C14.5013 24.917 12.418 20.0003 14.5013 16.167C16.3346 18.3337 19.168 19.5837 22.0013 19.5003C21.2513 16.0003 25.3346 14.0003 27.8346 16.3337C28.7513 16.3337 30.3346 15.3337 30.3346 15.3337Z" stroke="white" stroke-width="1.66667" stroke-linecap="round" stroke-linejoin="round"/>
</svg>
