<svg width="44" height="44" viewBox="0 0 44 44" fill="none" xmlns="http://www.w3.org/2000/svg">
<path d="M0 5C0 2.23858 2.23858 0 5 0H39C41.7614 0 44 2.23858 44 5V39C44 41.7614 41.7614 44 39 44H5C2.23858 44 0 41.7614 0 39V5Z" fill="#B18132"/>
<path d="M26.9987 13.667H24.4987C23.3936 13.667 22.3338 14.106 21.5524 14.8874C20.771 15.6688 20.332 16.7286 20.332 17.8337V20.3337H17.832V23.667H20.332V30.3337H23.6654V23.667H26.1654L26.9987 20.3337H23.6654V17.8337C23.6654 17.6126 23.7532 17.4007 23.9094 17.2444C24.0657 17.0881 24.2777 17.0003 24.4987 17.0003H26.9987V13.667Z" stroke="white" stroke-width="1.66667" stroke-linecap="round" stroke-linejoin="round"/>
</svg>
