<svg width="24" height="16" viewBox="0 0 24 16" fill="none" xmlns="http://www.w3.org/2000/svg">
<path d="M23.6248 16H0.374998C0.167811 16 0 15.8355 0 15.6324V11.8076C0 11.2039 0.50109 10.7127 1.11702 10.7127C2.8367 10.7127 4.34044 9.61179 4.85903 7.97316C5.03778 7.40831 5.10981 6.82049 5.1859 6.19806C5.22543 5.87536 5.26622 5.54178 5.3234 5.21234C5.43496 4.56877 5.66278 3.94541 6.00059 3.35943C6.32277 2.80056 6.73824 2.28672 7.23511 1.83245C8.21526 0.936477 9.46947 0.321396 10.7666 0.100695C11.7693 -0.0699225 12.8184 -0.0230561 13.8007 0.23624C14.7918 0.497833 15.7216 0.977983 16.49 1.62477C17.2294 2.24705 17.8286 3.02601 18.271 3.94005C18.6902 4.80647 18.7796 5.68758 18.866 6.5396C18.8896 6.77271 18.9141 7.01378 18.945 7.2527C18.9943 7.63284 19.0586 7.93089 19.1475 8.19095C19.6386 9.62864 21.233 10.7127 22.8561 10.7127C23.4869 10.7127 24 11.2157 24 11.834V15.6326C23.9998 15.8355 23.832 16 23.6248 16ZM0.749995 15.2648H23.2498V11.8338C23.2498 11.6209 23.0731 11.4477 22.8559 11.4477C21.932 11.4477 20.9788 11.1498 20.1716 10.6087C19.3441 10.0541 18.7278 9.27837 18.4361 8.42436C18.3311 8.11743 18.2563 7.77451 18.2008 7.34506C18.1686 7.09633 18.1436 6.8502 18.1196 6.6122C18.0358 5.78622 17.9566 5.00603 17.5932 4.25495C17.1961 3.43448 16.6605 2.73715 16.0013 2.18226C14.6235 1.02255 12.7146 0.51514 10.8949 0.824825C8.47666 1.23651 6.44449 3.13353 6.06262 5.33547C6.00855 5.64715 5.96887 5.97169 5.93043 6.28566C5.85356 6.9133 5.77418 7.56223 5.57512 8.19095C5.2734 9.1442 4.69325 9.95778 3.89716 10.5436C3.09357 11.1351 2.13202 11.4477 1.11687 11.4477C0.914525 11.4477 0.749839 11.6091 0.749839 11.8075L0.749995 15.2648Z" fill="#C5A065"/>
<path d="M12.0017 11.5763C10.6876 11.5763 9.45217 11.0747 8.52296 10.1639C7.59375 9.25304 7.08203 8.04202 7.08203 6.75397C7.08203 5.46591 7.59375 4.25489 8.52296 3.34406C9.45217 2.43323 10.6876 1.93164 12.0017 1.93164C13.3157 1.93164 14.5512 2.43323 15.4804 3.34406C16.4096 4.25489 16.9213 5.46591 16.9213 6.75397C16.9213 8.04202 16.4096 9.25304 15.4804 10.1639C14.5512 11.0747 13.3157 11.5763 12.0017 11.5763ZM12.0017 2.6668C9.70248 2.6668 7.83203 4.50025 7.83203 6.75397C7.83203 9.00768 9.70248 10.8411 12.0017 10.8411C14.3009 10.8411 16.1713 9.00768 16.1713 6.75397C16.1713 4.50025 14.3009 2.6668 12.0017 2.6668Z" fill="#C5A065"/>
<path d="M12 3.42769C11.7928 3.42769 11.625 3.26319 11.625 3.06011V2.29922C11.625 2.09613 11.7928 1.93164 12 1.93164C12.2072 1.93164 12.375 2.09613 12.375 2.29922V3.06011C12.375 3.26304 12.2072 3.42769 12 3.42769Z" fill="#C5A065"/>
<path d="M9.33402 4.50949C9.23808 4.50949 9.14214 4.47365 9.06886 4.40182L8.51996 3.86378C8.37355 3.72027 8.37355 3.48747 8.51996 3.34396C8.66637 3.20045 8.90386 3.20045 9.05027 3.34396L9.59917 3.882C9.74558 4.02551 9.74558 4.25831 9.59917 4.40182C9.52589 4.47365 9.42995 4.50949 9.33402 4.50949Z" fill="#C5A065"/>
<path d="M8.23327 7.12188H7.45703C7.24984 7.12188 7.08203 6.95738 7.08203 6.7543C7.08203 6.55121 7.24984 6.38672 7.45703 6.38672H8.23327C8.44046 6.38672 8.60827 6.55121 8.60827 6.7543C8.60827 6.95738 8.44046 7.12188 8.23327 7.12188Z" fill="#C5A065"/>
<path d="M8.78512 10.2712C8.68918 10.2712 8.59324 10.2354 8.51996 10.1635C8.37355 10.02 8.37355 9.78723 8.51996 9.64372L9.06886 9.10568C9.21527 8.96217 9.45277 8.96217 9.59917 9.10568C9.74558 9.24919 9.74558 9.48199 9.59917 9.62549L9.05027 10.1635C8.97699 10.2354 8.88105 10.2712 8.78512 10.2712Z" fill="#C5A065"/>
<path d="M12 11.5761C11.7928 11.5761 11.625 11.4116 11.625 11.2085V10.4477C11.625 10.2446 11.7928 10.0801 12 10.0801C12.2072 10.0801 12.375 10.2446 12.375 10.4477V11.2085C12.375 11.4115 12.2072 11.5761 12 11.5761Z" fill="#C5A065"/>
<path d="M15.2129 10.2712C15.117 10.2712 15.0211 10.2354 14.9478 10.1635L14.3989 9.62549C14.2525 9.48199 14.2525 9.24919 14.3989 9.10568C14.5453 8.96217 14.7828 8.96217 14.9292 9.10568L15.4781 9.64372C15.6245 9.78723 15.6245 10.02 15.4781 10.1635C15.4048 10.2354 15.3089 10.2712 15.2129 10.2712Z" fill="#C5A065"/>
<path d="M16.5458 7.12188H15.7695C15.5623 7.12188 15.3945 6.95738 15.3945 6.7543C15.3945 6.55121 15.5623 6.38672 15.7695 6.38672H16.5458C16.753 6.38672 16.9208 6.55121 16.9208 6.7543C16.9208 6.95738 16.7528 7.12188 16.5458 7.12188Z" fill="#C5A065"/>
<path d="M14.664 4.50949C14.5681 4.50949 14.4721 4.47365 14.3989 4.40182C14.2525 4.25831 14.2525 4.02551 14.3989 3.882L14.9478 3.34396C15.0942 3.20045 15.3317 3.20045 15.4781 3.34396C15.6245 3.48747 15.6245 3.72027 15.4781 3.86378L14.9292 4.40182C14.8559 4.47365 14.76 4.50949 14.664 4.50949Z" fill="#C5A065"/>
<path d="M12 6.54104C11.7928 6.54104 11.625 6.37655 11.625 6.17347V4.80117C11.625 4.59809 11.7928 4.43359 12 4.43359C12.2072 4.43359 12.375 4.59809 12.375 4.80117V6.17347C12.375 6.3764 12.2072 6.54104 12 6.54104Z" fill="#C5A065"/>
<path d="M14.2762 7.12188H12.5937C12.3866 7.12188 12.2188 6.95738 12.2188 6.7543C12.2188 6.55121 12.3866 6.38672 12.5937 6.38672H14.2762C14.4834 6.38672 14.6512 6.55121 14.6512 6.7543C14.6512 6.95738 14.4833 7.12188 14.2762 7.12188Z" fill="#C5A065"/>
<path d="M11.9987 7.70335C11.4653 7.70335 11.0312 7.27787 11.0312 6.75499C11.0312 6.23211 11.4653 5.80664 11.9987 5.80664C12.5322 5.80664 12.9662 6.23211 12.9662 6.75499C12.9662 7.27787 12.5322 7.70335 11.9987 7.70335ZM11.9987 6.5418C11.8789 6.5418 11.7812 6.63737 11.7812 6.75499C11.7812 6.87262 11.8787 6.96819 11.9987 6.96819C12.1187 6.96819 12.2162 6.87262 12.2162 6.75499C12.2162 6.63737 12.1187 6.5418 11.9987 6.5418Z" fill="#C5A065"/>
<path d="M23.6248 13.7313H0.374998C0.167811 13.7313 0 13.5668 0 13.3637C0 13.1606 0.167811 12.9961 0.374998 12.9961H23.6248C23.832 12.9961 23.9998 13.1606 23.9998 13.3637C23.9998 13.5668 23.832 13.7313 23.6248 13.7313Z" fill="#C5A065"/>
</svg>
