<svg width="48" height="24" viewBox="0 0 48 24" fill="none" xmlns="http://www.w3.org/2000/svg">
<path d="M12.5344 21.3333H8.80106V24H5.33434V18.1332C4.74473 18.1332 4.26766 17.6562 4.26766 17.0666C4.26766 16.477 4.74475 15.9999 5.33434 15.9999V14.3999C4.74473 14.3999 4.26766 13.9228 4.26766 13.3332H2.66763C1.1947 13.3332 0.000926426 12.1394 0.000926426 10.6665C0.000926426 9.19354 1.1947 7.99977 2.66763 7.99977H32.7203C32.1433 7.00183 31.8724 5.80597 32.0599 4.53097C32.4099 2.16427 34.3724 0.283012 36.7517 0.0309014C39.9579 -0.308688 42.6685 2.19552 42.6685 5.33306C45.6144 5.33306 48.002 7.72061 48.002 10.6665C48.002 13.6123 45.6144 15.9999 42.6685 15.9999C42.6685 19.1374 39.9602 21.6416 36.7517 21.302C34.3725 21.05 32.4099 19.1687 32.0599 16.802C31.8703 15.529 32.1412 14.3311 32.7203 13.3332H17.0678C17.0678 13.9228 16.5908 14.3999 16.0012 14.3999V15.9999C16.5908 15.9999 17.0678 16.477 17.0678 17.0666C17.0678 17.6562 16.5908 18.1332 16.0012 18.1332V24H12.5344V21.3333ZM44.6683 10.6665C44.6683 9.5623 43.7724 8.66644 42.6682 8.66644C41.564 8.66644 40.1349 10.6665 40.1349 10.6665C40.1349 10.6665 41.564 12.6665 42.6682 12.6665C43.7724 12.6665 44.6683 11.7706 44.6683 10.6665ZM39.3348 15.9999C39.3348 14.8957 37.3348 13.4665 37.3348 13.4665C37.3348 13.4665 35.3348 14.8957 35.3348 15.9999C35.3348 17.1041 36.2306 17.9999 37.3348 17.9999C38.439 17.9999 39.3348 17.1041 39.3348 15.9999ZM39.3348 5.33306C39.3348 4.22888 38.439 3.33303 37.3348 3.33303C36.2306 3.33303 35.3348 4.22888 35.3348 5.33306C35.3348 6.43724 37.3348 7.86643 37.3348 7.86643C37.3348 7.86643 39.3348 6.43724 39.3348 5.33306Z" fill="#F7D117"/>
</svg>
