<svg width="19" height="24" viewBox="0 0 19 24" fill="none" xmlns="http://www.w3.org/2000/svg">
<path d="M4.2542 12.9089C4.34213 12.9953 4.47663 13.008 4.58008 12.9445C5.35987 12.4528 6.26377 12.1924 7.19615 12.1924C10.9387 12.0958 13.3696 16.4941 11.2826 19.529C11.2154 19.6306 11.2309 19.7628 11.3176 19.8491L12.6081 21.117C12.6573 21.1652 12.7232 21.1919 12.7918 21.1919C12.8745 21.1919 12.9547 21.1513 13.0026 21.0852C14.5919 18.9764 14.8001 15.9985 13.5431 13.6878L15.3302 13.6395C15.8941 13.6128 16.379 14.1299 16.3105 14.6787L15.832 19.2343C15.7699 19.8238 16.207 20.365 16.807 20.4361C17.4045 20.5136 17.9735 20.0855 18.0511 19.4961L18.9847 12.8684C19.0442 12.4441 18.9175 12.0122 18.6356 11.6844C18.3536 11.3567 17.9411 11.1623 17.504 11.1509L11.9513 11.0111L14.6514 7.76908C15.2385 7.09577 15.0329 5.9753 14.2428 5.54591L8.6278 2.39789C8.03681 2.05488 7.23895 2.15143 6.7527 2.62656L3.56116 5.6882C2.66888 6.56984 3.89221 7.92028 4.88795 7.15549C4.88795 7.15549 7.26867 5.15845 7.26997 5.15592C7.46135 5.0022 7.70189 4.91708 7.94889 4.91708C8.15709 4.91708 8.36012 4.97679 8.53339 5.08731L9.98561 6.05026L7.38504 9.92752C5.80996 9.85129 4.2711 10.3506 2.99861 11.2487C2.93653 11.2919 2.89774 11.3605 2.89127 11.4367C2.8861 11.5104 2.91196 11.5841 2.96628 11.6375L4.25685 12.9053L4.2542 12.9089Z" fill="white"/>
<path d="M14.9087 4.59262C15.4816 4.70569 16.0842 4.679 16.6519 4.25088C17.4136 3.7783 18.152 1.52463 17.3243 0.735585C16.9493 0.302393 16.3467 0.130872 15.9251 0.0419574C13.1112 -0.470003 12.0793 3.85808 14.9087 4.59373L14.9087 4.59262Z" fill="white"/>
<path d="M7.19756 23.9991C8.74937 23.9991 10.2262 23.5188 11.4688 22.6118C11.5942 22.5229 11.6097 22.3298 11.4972 22.2243L10.2092 20.9603C10.1213 20.8739 9.98424 20.8612 9.88078 20.9273C5.49303 23.7615 0.270028 18.6279 3.15382 14.3188C3.22365 14.2172 3.20813 14.0825 3.1202 13.9962L1.8335 12.7309C1.77919 12.6775 1.70547 12.6508 1.62918 12.6572C-2.27359 16.951 1.33175 24.0984 7.19481 23.9966L7.19756 23.9991Z" fill="white"/>
</svg>
