<svg width="12" height="13" viewBox="0 0 12 13" fill="none" xmlns="http://www.w3.org/2000/svg">
<path d="M3 0C2.66778 0 2.4 0.26778 2.4 0.6V2.4C2.4 2.73222 2.66778 3 3 3C3.33222 3 3.6 2.73222 3.6 2.4V0.6C3.6 0.26778 3.33222 0 3 0ZM9 0C8.66778 0 8.4 0.26778 8.4 0.6V2.4C8.4 2.73222 8.66778 3 9 3C9.33222 3 9.6 2.73222 9.6 2.4V0.6C9.6 0.26778 9.33222 0 9 0ZM0.9 1.5C0.40137 1.5 0 1.90137 0 2.4V4.5H12V2.4C12 1.90137 11.5986 1.5 11.1 1.5H10.2V2.4C10.2 3.0545 9.6545 3.6 9 3.6C8.34551 3.6 7.8 3.0545 7.8 2.4V1.5H4.2V2.4C4.2 3.0545 3.6545 3.6 3 3.6C2.3455 3.6 1.8 3.0545 1.8 2.4V1.5H0.9ZM0 5.1V11.7C0 12.1986 0.40137 12.6 0.9 12.6H11.1C11.5986 12.6 12 12.1986 12 11.7V5.1H0ZM1.95 6.3H3.75V8.1H1.95V6.3ZM5.1 6.3H6.9V8.1H5.1V6.3ZM8.25 6.3H10.05V8.1H8.25V6.3ZM1.95 9.6H3.75V11.4H1.95V9.6ZM5.1 9.6H6.9V11.4H5.1V9.6ZM8.25 9.6H10.05V11.4H8.25V9.6Z" fill="black"/>
</svg>
