<svg width="16" height="16" viewBox="0 0 16 16" fill="none" xmlns="http://www.w3.org/2000/svg">
<path d="M0.00476284 4.34398C-0.00887539 4.48318 0.00685485 4.62369 0.0509361 4.75642C0.0950173 4.88916 0.166468 5.01116 0.260667 5.11454C0.354866 5.21793 0.469716 5.30039 0.597789 5.35659C0.725862 5.4128 0.864306 5.44149 1.00417 5.44083H1.75372C1.75337 5.51846 1.75754 5.59604 1.76621 5.67319L2.71315 13.7259C2.78423 14.3345 3.07651 14.8958 3.53441 15.3031C3.9923 15.7103 4.58389 15.935 5.19667 15.9346H10.8033C11.4153 15.9345 12.006 15.7098 12.4633 15.3032C12.9206 14.8965 13.2128 14.3362 13.2844 13.7284L14.2313 5.67569C14.2409 5.59776 14.2459 5.51934 14.2463 5.44083H14.9958C15.1357 5.44149 15.2741 5.4128 15.4022 5.35659C15.5303 5.30039 15.6451 5.21793 15.7393 5.11454C15.8335 5.01116 15.905 4.88916 15.9491 4.75642C15.9931 4.62369 16.0089 4.48318 15.9952 4.34398C15.9638 4.09144 15.8399 3.85951 15.6475 3.69294C15.4551 3.52637 15.2078 3.43698 14.9534 3.44202H11.7353C11.6585 2.50411 11.2317 1.62941 10.5397 0.991716C9.84765 0.354019 8.94104 0 8 0C7.05896 0 6.15235 0.354019 5.46033 0.991716C4.7683 1.62941 4.3415 2.50411 4.26472 3.44202H1.04664C0.792202 3.43698 0.544914 3.52637 0.352507 3.69294C0.1601 3.85951 0.0362154 4.09144 0.00476284 4.34398ZM8 1.94291C8.42021 1.9434 8.8262 2.09517 9.14369 2.37045C9.46118 2.64573 9.66894 3.02612 9.72897 3.44202H6.27103C6.33106 3.02612 6.53882 2.64573 6.85631 2.37045C7.1738 2.09517 7.57979 1.9434 8 1.94291ZM12.2475 5.44083L11.3005 13.4935C11.2864 13.6159 11.2275 13.7287 11.1353 13.8103C11.0431 13.8919 10.924 13.9366 10.8008 13.9358H5.19667C5.07352 13.9366 4.95441 13.8919 4.86219 13.8103C4.76996 13.7287 4.71113 13.6159 4.69697 13.4935L3.75253 5.44083H12.2475Z" fill="black"/>
</svg>
