<svg width="16" height="16" viewBox="0 0 16 16" fill="none" xmlns="http://www.w3.org/2000/svg">
<path d="M15.1578 5.91236C15.6294 5.91236 16 5.54178 16 5.07014V1.31386C16 0.842216 15.6294 0.471641 15.1578 0.471641C14.6861 0.471641 14.3156 0.842216 14.3156 1.31386V3.04882L13.6081 2.34136C12.0921 0.842216 10.1045 0 7.96526 0C5.82603 0 3.82156 0.825372 2.32241 2.34136C-0.77694 5.45756 -0.77694 10.5109 2.33926 13.6271C3.88894 15.1767 5.94394 15.9684 7.98211 15.9684C10.0203 15.9684 12.0753 15.1936 13.625 13.6271C14.8546 12.3974 15.6463 10.8141 15.8821 9.09593C15.9495 8.64114 15.6294 8.22003 15.1578 8.15265C14.703 8.08527 14.2819 8.40531 14.2145 8.87696C14.0292 10.2413 13.406 11.471 12.429 12.448C9.96974 14.8904 5.97763 14.8904 3.51836 12.448C1.05909 9.98868 1.05909 5.99658 3.51836 3.53731C4.71431 2.34136 6.29767 1.68443 7.96526 1.68443C9.64969 1.68443 11.2331 2.34136 12.4122 3.53731L13.1196 4.24477H11.4015C10.9299 4.24477 10.5593 4.61534 10.5593 5.08698C10.5593 5.55862 10.9299 5.9292 11.4015 5.9292H15.1578V5.91236Z" fill="black"/>
<path d="M7.93206 3.55371C7.46042 3.55371 7.08984 3.92429 7.08984 4.39593V7.98377C7.08984 8.27012 7.2246 8.52278 7.46042 8.67438L9.61649 10.123C9.76809 10.2241 9.91969 10.2746 10.0881 10.2746C10.3576 10.2746 10.6272 10.1398 10.7787 9.90402C11.0314 9.5166 10.9303 8.99443 10.5598 8.74176L8.77428 7.54581V4.39593C8.77428 3.94113 8.4037 3.55371 7.93206 3.55371Z" fill="black"/>
</svg>
