<svg width="16" height="16" viewBox="0 0 16 16" fill="none" xmlns="http://www.w3.org/2000/svg">
<path d="M2.50001 16.0001C2.68606 16 2.87118 15.9739 3.05002 15.9226L6.55004 14.9226C6.87603 14.8318 7.17365 14.6597 7.41504 14.4226L12.7076 9.12255L14.1226 7.70754L14.7951 7.03504C15.3708 6.45836 15.7626 5.72403 15.9212 4.92477C16.0798 4.12552 15.9979 3.2972 15.686 2.54444C15.3741 1.79167 14.8461 1.14822 14.1687 0.69535C13.4913 0.242483 12.6949 0.000512394 11.8801 0H11.8551C10.745 0.0145811 9.686 0.468572 8.91005 1.26251L8.29505 1.87751L6.88004 3.29252L1.58501 8.58505C1.34785 8.82644 1.17581 9.12406 1.08501 9.45005L0.0850005 12.9501C0.0311731 13.1286 0.00256264 13.3137 0 13.5001C0 13.8284 0.0646646 14.1535 0.190302 14.4568C0.31594 14.7601 0.500089 15.0357 0.732237 15.2679C0.964385 15.5 1.23998 15.6842 1.5433 15.8098C1.84662 15.9354 2.17171 16.0001 2.50001 16.0001ZM10.3226 2.67752C10.7282 2.25845 11.282 2.0152 11.8651 2.00001C12.2846 2.00034 12.6947 2.125 13.0434 2.35825C13.3921 2.5915 13.6639 2.92287 13.8244 3.3105C13.9849 3.69813 14.027 4.12464 13.9452 4.53615C13.8635 4.94765 13.6616 5.3257 13.3651 5.62253L12.9426 6.04503L9.94256 3.04502L10.3226 2.67752ZM3.00002 10.0001L8.29255 4.70753L8.54255 4.45753L11.5426 7.45754L11.2926 7.70754L6.00003 13.0001L2.50001 14.0001C2.36741 14.0001 2.24023 13.9474 2.14646 13.8536C2.05269 13.7599 2.00001 13.6327 2.00001 13.5001L3.00002 10.0001Z" fill="black"/>
</svg>
