<svg width="14" height="18" viewBox="0 0 14 18" fill="none" xmlns="http://www.w3.org/2000/svg">
<path d="M6.94141 12.7705C10.2551 12.7705 12.9414 10.1225 12.9414 6.85596C12.9414 3.58944 10.2551 0.941406 6.94141 0.941406C3.6277 0.941406 0.941406 3.58944 0.941406 6.85596C0.941406 10.1225 3.6277 12.7705 6.94141 12.7705Z" stroke="black" stroke-width="1.88311"/>
<path d="M6.93566 7.68179C8.3585 7.68179 9.51195 6.5559 9.51195 5.16707C9.51195 3.77823 8.3585 2.65234 6.93566 2.65234C5.51282 2.65234 4.35938 3.77823 4.35938 5.16707C4.35938 6.5559 5.51282 7.68179 6.93566 7.68179Z" fill="black"/>
<path d="M2.65234 11.0498L6.93836 16.941L11.2244 11.0498" stroke="black" stroke-width="1.87432" stroke-linejoin="round"/>
</svg>
