<svg width="24" height="24" viewBox="0 0 24 24" fill="none" xmlns="http://www.w3.org/2000/svg">
<path d="M11.9997 17.1424C11.9997 17.8356 11.5819 18.4613 10.9412 18.726C10.3005 18.9917 9.56334 18.8449 9.0737 18.3542C8.58298 17.8645 8.43622 17.1274 8.70191 16.4867C8.96655 15.846 9.59225 15.4282 10.2854 15.4282C11.2315 15.4314 11.9965 16.1964 11.9997 17.1424ZM23.9994 11.9997C23.9994 15.1819 22.7351 18.2341 20.4853 20.4853C18.2343 22.7353 15.1819 23.9994 11.9997 23.9994C8.81752 23.9994 5.76534 22.7351 3.51406 20.4853C1.26412 18.2343 0 15.1819 0 11.9997C0 8.81752 1.26426 5.76534 3.51406 3.51406C5.76507 1.26412 8.81752 0 11.9997 0C15.1808 0.00321427 18.231 1.26854 20.481 3.51845C22.7309 5.76836 23.9961 8.81862 23.9994 11.9997ZM17.1424 6.85697C17.1424 5.94735 16.7814 5.07523 16.1385 4.4324C15.4957 3.78958 14.6236 3.42849 13.7139 3.42849C12.7679 3.4317 12.0029 4.19669 11.9997 5.14273V14.1939C11.4822 13.8822 10.8897 13.7161 10.2855 13.7139C8.89906 13.7139 7.64873 14.5496 7.11836 15.83C6.58695 17.1114 6.88051 18.5867 7.86083 19.567C8.84116 20.5473 10.3165 20.8409 11.5979 20.3095C12.8782 19.7791 13.7139 18.5288 13.7139 17.1424V5.14268C14.6599 5.14589 15.4249 5.91088 15.4281 6.85692V7.71404C15.4281 8.18761 15.8117 8.57116 16.2853 8.57116C16.7588 8.57116 17.1424 8.18761 17.1424 7.71404L17.1424 6.85697Z" fill="#FFD600"/>
</svg>
