<svg width="24" height="34" viewBox="0 0 24 34" fill="none" xmlns="http://www.w3.org/2000/svg">
<path d="M21.1226 7.08398H19.6846C19.5313 7.08398 19.3865 7.14486 19.2773 7.25193C19.1703 7.36109 19.1094 7.50595 19.1094 7.65919V16.531C19.1094 16.8501 19.3676 17.1062 19.6846 17.1062H21.1226C22.7118 17.1062 23.9987 15.8193 23.9987 14.2301V9.96222C23.9987 8.37306 22.7118 7.08398 21.1226 7.08398Z" fill="#0288D1"/>
<path d="M7.85181 20.5988L12.972 17.8172C13.2785 17.6514 13.5073 17.3701 13.6102 17.0384L15.0923 12.2162H15.0902C15.3064 11.5151 14.9118 10.7698 14.2085 10.5536C13.5073 10.3394 12.7621 10.732 12.5458 11.4332L11.2233 15.7263L6.57752 18.2559C5.93304 18.6086 5.69372 19.4147 6.04429 20.0614L6.04639 20.0656V20.0635C6.21433 20.3741 6.49984 20.6051 6.83785 20.7058C7.17794 20.8066 7.54112 20.7668 7.85181 20.5988Z" fill="#0288D1"/>
<path d="M17.9312 19.2087V9.58129C17.9312 8.3091 16.9004 7.27832 15.6304 7.27832H13.2581C12.9033 7.27832 12.5653 7.41897 12.3155 7.66879L9.22325 10.7611L4.34446 10.1565C4.29197 10.1502 4.23949 10.146 4.18911 10.1439C3.48374 10.1439 2.90225 10.6897 2.85812 11.393C2.81404 12.0941 3.32417 12.7113 4.02116 12.7974L9.54643 13.4755V13.4776C9.95369 13.528 10.363 13.3894 10.6507 13.0976L10.9047 12.8436L11.4106 11.204C11.8158 9.89614 13.2476 9.04803 14.5533 9.45529H14.5554C15.8612 9.86255 16.5918 11.2481 16.1887 12.556L14.7087 17.3739V17.3718C14.5198 17.9974 14.0915 18.5201 13.5163 18.8287L12.1055 19.5949V21.5053L8.49258 25.6935C8.37292 25.8341 8.28265 25.9958 8.22806 26.1721L6.39324 32.1343C6.17701 32.8376 6.56959 33.5807 7.27284 33.797C7.97612 34.0132 8.71927 33.6207 8.93553 32.9174L10.6905 27.2196L14.927 22.3114C16.6022 22.2589 17.9334 20.884 17.9312 19.2087Z" fill="#0288D1"/>
<path d="M18.2802 26.5465L17.9401 22.1211C17.2935 22.8118 16.4349 23.2673 15.5007 23.4101L15.3789 23.5549L15.6455 27.0335C15.6602 27.2182 15.7106 27.3967 15.7988 27.5583L18.7105 33.0143C19.059 33.6608 19.863 33.9065 20.5118 33.5601C21.1583 33.2137 21.404 32.4097 21.0597 31.7609L18.2802 26.5465Z" fill="#0288D1"/>
<path d="M16.1462 3.01253C16.1462 4.67522 14.7963 6.02507 13.1336 6.02507C11.4688 6.02507 10.1211 4.67522 10.1211 3.01253C10.1211 1.34775 11.4688 0 13.1336 0C14.7963 0 16.1462 1.34775 16.1462 3.01253Z" fill="#0288D1"/>
<path d="M3.67849 13.9082L0.0172847 31.9162C-0.0771839 32.3844 0.225117 32.8378 0.691161 32.9344C1.15721 33.0289 1.61274 32.7266 1.70931 32.2605L5.39782 14.1267L3.88422 13.942V13.9441C3.81494 13.9378 3.74567 13.925 3.67849 13.9082Z" fill="#0288D1"/>
<path d="M7.31726 4.69388C7.41173 4.22573 7.10943 3.77015 6.64339 3.67572C6.41876 3.62954 6.18574 3.67572 5.99472 3.80169C5.80369 3.92765 5.66932 4.12498 5.62314 4.34959L4.66797 9.03314L6.3894 9.25147L7.31726 4.69388Z" fill="#0288D1"/>
</svg>
