<svg width="24" height="24" viewBox="0 0 24 24" fill="none" xmlns="http://www.w3.org/2000/svg">
<path d="M9.7038 14.2979C9.28192 14.2979 8.9375 14.6413 8.9375 15.0641V15.8304H10.4691V15.0641C10.4701 14.6413 10.1266 14.2979 9.7038 14.2979Z" fill="black"/>
<path d="M19.4023 21.957H20.4237V23.9999H19.4023V21.957Z" fill="black"/>
<path d="M9.30112 10.7235C8.45143 9.97404 7.91345 8.87918 7.91345 7.65914C7.91345 5.40688 9.74581 3.57457 11.998 3.57457C14.2503 3.57457 16.0826 5.40694 16.0826 7.65914C16.0826 8.87808 15.5446 9.97393 14.6949 10.7235H19.0189C19.4417 9.75764 19.6571 8.72829 19.6571 7.65914C19.6581 3.43659 16.2226 0 11.999 0C7.77542 0 4.33984 3.43633 4.33984 7.65914C4.33984 8.72818 4.55524 9.75654 4.97809 10.7235H9.30112Z" fill="black"/>
<path d="M12.0018 4.5957C10.3124 4.5957 8.9375 5.97049 8.9375 7.66002C8.9375 9.34846 10.3123 10.7233 12.0018 10.7233C13.6913 10.7233 15.0661 9.34853 15.0661 7.659C15.0661 5.97057 13.6913 4.5957 12.0018 4.5957ZM12.0018 9.19154C11.1571 9.19154 10.4702 8.50466 10.4702 7.65994C10.4702 6.81424 11.1571 6.12735 12.0018 6.12735C12.8465 6.12735 13.5334 6.81424 13.5334 7.65895C13.5334 8.50367 12.8465 9.19154 12.0018 9.19154Z" fill="black"/>
<path d="M3.57422 21.957H4.59562V23.9999H3.57422V21.957Z" fill="black"/>
<path d="M22.0085 11.7451H1.99217C1.78968 12.7437 0.999569 13.5348 0 13.7363V18.9445C0.991615 19.1451 1.7867 19.9292 1.99118 20.9357H22.0082C22.2127 19.9282 23.0078 19.1441 23.9994 18.9445V13.7363C23.0008 13.5328 22.2119 12.7437 22.0085 11.7451ZM6.89396 17.6174C6.89396 18.603 6.09194 19.4041 5.10726 19.4041C4.12159 19.4041 3.32056 18.602 3.32056 17.6174V17.3623C3.32056 17.0803 3.54887 16.8521 3.83077 16.8521C4.11268 16.8521 4.34097 17.0804 4.34097 17.3623V17.6174C4.34097 18.0392 4.68442 18.3836 5.10726 18.3836C5.52914 18.3836 5.87356 18.0402 5.87356 17.6174V13.7879C5.87356 13.506 6.10186 13.2777 6.38376 13.2777C6.66567 13.2777 6.89396 13.506 6.89396 13.7879V17.6174ZM11.4898 18.8939C11.4898 19.1758 11.2615 19.4041 10.9796 19.4041C10.6977 19.4041 10.4694 19.1758 10.4694 18.8939V16.851H8.9378V18.8939C8.9378 19.1758 8.7095 19.4041 8.4276 19.4041C8.1457 19.4041 7.91739 19.1758 7.91739 18.8939V15.0644C7.91739 14.0787 8.71942 13.2777 9.70409 13.2777C10.6898 13.2777 11.4908 14.0797 11.4908 15.0644L11.4898 18.8939ZM15.5744 19.4041H13.0213C12.6421 19.4041 12.395 19.005 12.5647 18.6656L14.7485 14.2979H13.0213C12.7394 14.2979 12.5111 14.0696 12.5111 13.7877C12.5111 13.5058 12.7394 13.2775 13.0213 13.2775H15.5744C15.9536 13.2775 16.2007 13.6765 16.031 14.016L13.8472 18.3836H15.5744C15.8563 18.3836 16.0846 18.612 16.0846 18.8939C16.0846 19.1758 15.8563 19.4041 15.5744 19.4041ZM20.1702 19.4041H17.6172C17.238 19.4041 16.9908 19.005 17.1606 18.6656L19.3443 14.2979H17.6172C17.3353 14.2979 17.107 14.0696 17.107 13.7877C17.107 13.5058 17.3353 13.2775 17.6172 13.2775H20.1702C20.5494 13.2775 20.7965 13.6765 20.6268 14.016L18.4431 18.3836H20.1702C20.4521 18.3836 20.6804 18.612 20.6804 18.8939C20.6804 19.1758 20.4521 19.4041 20.1702 19.4041Z" fill="black"/>
</svg>
