<svg width="24" height="23" viewBox="0 0 24 23" fill="none" xmlns="http://www.w3.org/2000/svg">
<path d="M22.8566 9.14387V7.99985C23.4875 7.99747 23.9994 7.48439 23.9994 6.85227V5.55944C23.9994 5.09637 23.7232 4.68208 23.2982 4.50353L13.1069 0.221423C12.4034 -0.0738077 11.5975 -0.0738077 10.8939 0.221423L0.704744 4.50353C0.277387 4.68328 0 5.09874 0 5.56304V6.85824C0 7.48799 0.513084 8.00107 1.14283 8.00107V9.1439C1.14283 9.56413 1.37497 9.9284 1.71424 10.1272V17.3033C1.37496 17.5021 1.14283 17.8664 1.14283 18.2866V19.4294C0.513084 19.4294 0 19.9425 0 20.5723V21.7151C0 22.3448 0.513084 22.8579 1.14283 22.8579H22.8566C23.4863 22.8579 23.9994 22.3448 23.9994 21.7151V20.5723C23.9994 19.9425 23.4863 19.4294 22.8566 19.4294V18.2866C22.8566 17.8652 22.6244 17.5009 22.2852 17.3033V10.1272C22.6244 9.92842 22.8566 9.5641 22.8566 9.14387ZM19.9995 17.1437V10.2867H21.1423V17.1437H19.9995ZM3.9999 10.2867V17.1437H2.85707V10.2867H3.9999ZM5.14273 10.1272C5.48201 9.92837 5.71414 9.56408 5.71414 9.14386V8.00103H6.85697V9.14386C6.85697 9.56408 7.08911 9.92836 7.42839 10.1272V17.1435H5.14273V10.1272ZM10.2855 9.14386H7.9998V8.00103H10.2855V9.14386ZM8.57122 10.2867H9.71405V17.1437H8.57122V10.2867ZM10.8569 10.1272C11.1962 9.92836 11.4283 9.56407 11.4283 9.14384V8.00102H12.5711V9.14384C12.5711 9.56407 12.8033 9.92834 13.1425 10.1272V17.1435H10.8569V10.1272ZM15.9996 9.14384H13.7139V8.00102H15.9996V9.14384ZM14.2854 10.2867H15.4282V17.1436H14.2854V10.2867ZM16.571 10.1272C16.9103 9.92835 17.1424 9.56406 17.1424 9.14383V8.001H18.2853V9.14383C18.2853 9.56406 18.5174 9.92833 18.8567 10.1272V17.1435H16.571V10.1272ZM19.4281 9.14383V8.001H21.7137V9.14383H19.4281ZM1.1477 5.55687L11.3369 1.27599C11.5476 1.1879 11.7738 1.14266 11.9999 1.14266C12.2261 1.14266 12.4523 1.18671 12.663 1.27599L22.8568 5.56053L22.852 6.85811L1.14313 6.8593L1.1477 5.55687ZM4.57132 8.00085V9.14368H2.28566V8.00085H4.57132ZM22.8566 21.7148H1.14283V20.572H22.8566V21.7148ZM2.28566 19.4291V18.2863H21.7137V19.4291H2.28566Z" fill="#FF8000"/>
<path d="M11.9994 2.57227C11.0542 2.57227 10.2852 3.34128 10.2852 4.28651C10.2852 5.23174 11.0542 6.00075 11.9994 6.00075C12.9446 6.00075 13.7136 5.23174 13.7136 4.28651C13.7136 3.34128 12.9446 2.57227 11.9994 2.57227ZM11.9994 4.85792C11.6839 4.85792 11.428 4.60198 11.428 4.28651C11.428 3.97104 11.6839 3.71509 11.9994 3.71509C12.3149 3.71509 12.5708 3.97104 12.5708 4.28651C12.5708 4.60198 12.3149 4.85792 11.9994 4.85792Z" fill="#FF8000"/>
</svg>
