<svg width="24" height="25" viewBox="0 0 24 25" fill="none" xmlns="http://www.w3.org/2000/svg">
<path d="M7.72447 12.3771L8.50738 12.2988C8.79445 12.2727 9.05542 12.4032 9.2381 12.612L10.282 14.0734C10.9344 13.2905 11.5607 12.4815 12.1871 11.6725L11.4824 10.8374C11.2998 10.6286 11.2476 10.3155 11.352 10.0545L11.639 9.29767C12.0827 8.0972 11.8739 6.76626 11.091 5.74847L6.91546 0.372483C6.5762 -0.0711665 5.94987 -0.12336 5.50622 0.241998C5.11476 0.581259 5.08867 1.20759 5.40183 1.59904L8.84664 6.03554C9.08151 6.3487 9.00322 6.79235 8.66396 7.00113C8.37689 7.18381 7.98544 7.07942 7.75056 6.81845L4.33185 2.38195C3.99259 1.93831 3.36626 1.88611 2.92261 2.25147C2.53116 2.59073 2.50506 3.21706 2.81822 3.60852L6.26303 8.04501C6.49791 8.35817 6.41961 8.80182 6.08035 9.0106C5.79329 9.19328 5.40183 9.08889 5.16696 8.82792L1.77434 4.44362C1.46118 4.02607 0.860947 3.89558 0.417298 4.20875C-0.052449 4.52191 -0.13074 5.17434 0.208521 5.59189L4.41014 10.9679C5.19305 11.9857 6.44571 12.5076 7.72447 12.3771Z" fill="#A52714"/>
<path d="M15.7374 15.8486C15.1372 16.6837 14.4326 17.7276 13.6758 18.7976L17.5642 24.2258C17.9818 24.826 18.8169 24.9304 19.391 24.4868L20.5654 23.5734C21.1395 23.1297 21.2178 22.2946 20.7481 21.7466L15.7374 15.8486Z" fill="#A52714"/>
<path d="M23.1989 1.26033C22.964 0.660095 22.155 0.52961 21.7636 1.05155L14.0128 11.1511C11.6118 14.2827 9.44577 16.8924 6.83607 19.8414L5.34854 21.6682C4.87879 22.2423 4.98318 23.1035 5.58341 23.5733L6.75778 24.4606C7.38411 24.9303 8.24531 24.7738 8.68896 24.1474C10.3592 21.6421 14.2998 15.8486 15.8395 13.7869L17.6663 14.9874C18.3971 15.4049 19.3105 15.17 19.7541 14.4654C20.6414 13.004 22.2594 10.0028 23.4338 7.70629C24.5299 5.59243 23.7991 2.85225 23.1989 1.26033Z" fill="#A52714"/>
</svg>
