<svg width="64" height="64" viewBox="0 0 64 64" fill="none" xmlns="http://www.w3.org/2000/svg">
<circle cx="32" cy="32" r="32" fill="#00C950"/>
<path d="M48.3337 28.6671C49.0949 32.4026 48.5524 36.2862 46.7968 39.6701C45.0412 43.0541 42.1785 45.7339 38.6862 47.2627C35.1939 48.7914 31.2831 49.0768 27.6059 48.0711C23.9287 47.0654 20.7074 44.8295 18.4792 41.7362C16.251 38.6429 15.1506 34.8792 15.3615 31.0728C15.5724 27.2664 17.0818 23.6473 19.6381 20.8191C22.1944 17.9909 25.643 16.1245 29.4088 15.5312C33.1746 14.9379 37.03 15.6536 40.332 17.5588" stroke="white" stroke-width="4.16667" stroke-linecap="round" stroke-linejoin="round"/>
<path d="M27 30.3346L32 35.3346L48.6667 18.668" stroke="white" stroke-width="4.16667" stroke-linecap="round" stroke-linejoin="round"/>
</svg>
