<svg width="16" height="16" viewBox="0 0 16 16" fill="none" xmlns="http://www.w3.org/2000/svg">
<g clip-path="url(#clip0_13478_80779)">
<path d="M8.0678 6.4C6.26057 6.37202 4.88004 4.91922 4.86781 3.2C4.89767 1.40889 6.36162 0.01256 8.0678 0C9.87663 0.0684 11.255 1.45294 11.2678 3.2C11.2322 4.99251 9.77572 6.38786 8.0678 6.4ZM10.655 7.06384C12.9296 7.09039 14.0829 9.08558 14.0935 11.0808V16H11.8636V11.6766C11.8093 11.3777 11.6069 11.2764 11.4215 11.3057C11.2478 11.3331 11.0891 11.475 11.0807 11.6766V16H4.88506V11.6766C4.83764 11.3922 4.6567 11.2828 4.48065 11.2938C4.29215 11.3057 4.10928 11.4557 4.10208 11.6766V16H1.90634V11.0808C1.89328 8.95442 3.23836 7.0796 5.36151 7.06384H10.655Z" fill="#1E1E1E"/>
</g>
<defs>
<clipPath id="clip0_13478_80779">
<rect width="16" height="16" fill="white"/>
</clipPath>
</defs>
</svg>
