<svg width="23" height="24" viewBox="0 0 23 24" fill="none" xmlns="http://www.w3.org/2000/svg">
<path d="M18.0632 16.0674C17.0779 16.0674 16.1684 16.4463 15.4611 17.0526L7.85684 12.7074C7.90737 12.48 7.93263 12.2274 7.93263 12C7.93263 11.7474 7.90737 11.52 7.85684 11.2926L15.4611 6.94737C16.1684 7.55368 17.0779 7.93263 18.0632 7.93263C20.2611 7.93263 22.0295 6.16421 22.0295 3.96632C22.0295 1.76842 20.2611 0 18.0632 0C15.8653 0 14.0968 1.76842 14.0968 3.96632C14.0968 4.21895 14.1221 4.44632 14.1726 4.67368L6.56842 9.01895C5.86105 8.41263 4.95158 8.03368 3.96632 8.03368C1.76842 8.03368 0 9.8021 0 12C0 14.1979 1.76842 15.9663 3.96632 15.9663C4.95158 15.9663 5.86105 15.5874 6.56842 14.9811L14.1726 19.3263C14.1221 19.5537 14.0968 19.8063 14.0968 20.0337C14.0968 22.2316 15.8653 24 18.0632 24C20.2611 24 22.0295 22.2316 22.0295 20.0337C22.0295 17.8358 20.2611 16.0674 18.0632 16.0674Z" fill="white"/>
</svg>
