<svg width="18" height="16" viewBox="0 0 18 16" fill="none" xmlns="http://www.w3.org/2000/svg">
<g clip-path="url(#clip0_390_17931)">
<path d="M0.432726 0.876398C0.193542 0.876398 0 0.680407 0 0.438199C0 0.19599 0.193542 0 0.432726 0H3.13307C3.33759 0 3.50918 0.143921 3.55424 0.336986L3.9084 1.65392H12.6161H13.779H17.5673C17.8065 1.65392 18 1.84991 18 2.09212C18 2.136 17.9936 2.17812 17.9815 2.21849L17.2726 5.79195C17.2697 5.82003 17.2645 5.84694 17.2565 5.87268L16.5395 9.48592C16.4985 9.69361 16.3182 9.83695 16.1166 9.83695V9.8387H13.1129H8.26743H6.109L6.46315 11.1562H15.6827C15.9219 11.1562 16.1154 11.3522 16.1154 11.5944C16.1154 11.8366 15.9219 12.0326 15.6827 12.0326H6.13211C5.94146 12.0326 5.76698 11.9045 5.71441 11.7091L5.128 9.52922C5.12511 9.52044 5.1228 9.51166 5.12049 9.5023L4.14469 5.87444C4.14238 5.86566 4.14007 5.85689 4.13776 5.8487L3.89222 4.93603L3.15849 2.20679V2.20562L2.80087 0.876398H0.430992H0.432726ZM14.0044 12.6206C14.4313 12.6206 14.8172 12.7961 15.0969 13.0793C15.3765 13.3624 15.5492 13.7538 15.5492 14.1856C15.5492 14.6174 15.3759 15.0087 15.0969 15.2919C14.8172 15.5751 14.4307 15.75 14.0044 15.75C13.5774 15.75 13.1915 15.5745 12.9119 15.2919C12.6322 15.0087 12.4595 14.6174 12.4595 14.1856C12.4595 13.7532 12.6322 13.3624 12.9119 13.0793C13.1915 12.7961 13.578 12.6206 14.0044 12.6206ZM14.485 13.6988C14.362 13.5742 14.1921 13.4976 14.0044 13.4976C13.8166 13.4976 13.6467 13.5742 13.5237 13.6988C13.4006 13.8234 13.3249 13.9955 13.3249 14.1856C13.3249 14.3757 13.4006 14.5477 13.5237 14.6723C13.6467 14.797 13.8166 14.8736 14.0044 14.8736C14.1921 14.8736 14.362 14.7964 14.485 14.6723C14.6081 14.5477 14.6838 14.3757 14.6838 14.1856C14.6838 13.9955 14.6081 13.8234 14.485 13.6988ZM8.071 12.6206C8.49795 12.6206 8.88387 12.7961 9.1635 13.0793C9.44312 13.3624 9.61587 13.7538 9.61587 14.1856C9.61587 14.6174 9.44312 15.0087 9.1635 15.2919C8.88387 15.5751 8.49737 15.75 8.071 15.75C7.64463 15.75 7.25812 15.5745 6.9785 15.2919C6.69887 15.0087 6.52613 14.6174 6.52613 14.1856C6.52613 13.7532 6.69945 13.3624 6.9785 13.0793C7.25812 12.7961 7.64463 12.6206 8.071 12.6206ZM8.55168 13.6988C8.42862 13.5742 8.25876 13.4976 8.071 13.4976C7.88323 13.4976 7.71338 13.5742 7.59032 13.6988C7.46726 13.8234 7.39158 13.9955 7.39158 14.1856C7.39158 14.3757 7.46726 14.5477 7.59032 14.6723C7.71338 14.797 7.88323 14.8736 8.071 14.8736C8.25876 14.8736 8.42862 14.7964 8.55168 14.6723C8.67473 14.5477 8.75042 14.3757 8.75042 14.1856C8.75042 13.9955 8.67473 13.8234 8.55168 13.6988ZM14.1713 2.53091L13.9189 5.3087H16.4898L17.041 2.53091H14.1713ZM13.8391 6.1851L13.5867 8.96231H15.7647L16.3159 6.1851H13.8391ZM7.77808 8.96231L7.43549 6.1851H5.12685L5.87386 8.96231H7.77808ZM7.32745 5.30811L6.98485 2.53032H4.14411L4.89113 5.30811H7.32745ZM7.85723 2.53032L8.19983 5.30811H13.0523L13.3047 2.53032H7.85723ZM8.30787 6.18451L8.65047 8.96172H12.7206L12.9731 6.18451H8.30787Z" fill="#173A4B"/>
</g>
<defs>
<clipPath id="clip0_390_17931">
<rect width="18" height="16" fill="white"/>
</clipPath>
</defs>
</svg>
